<svg xmlns="http://www.w3.org/2000/svg" viewBox="0 0 1400 600">
  <!-- Define styles -->
  <defs>
    <style>
      .node-rect { fill: #999999; stroke: none; }
      .node-text { fill: white; font-family: 'Segoe UI', Arial, sans-serif; font-size: 18px; text-anchor: middle; dominant-baseline: middle; }
      .edge-line { stroke: #999999; stroke-width: 3; fill: none; }
    </style>
  </defs>
  
  <!-- Root node -->
  <rect class="node-rect" x="650" y="20" width="100" height="60" rx="5"/>
  <text class="node-text" x="700" y="50"></text>
  
  <!-- Connections from root -->
  <path class="edge-line" d="M 670 80 Q 670 100 200 120 L 200 140"/>
  <path class="edge-line" d="M 685 80 Q 685 100 380 120 L 380 140"/>
  <path class="edge-line" d="M 700 80 L 700 140"/>
  <path class="edge-line" d="M 715 80 Q 715 100 1000 120 L 1000 140"/>
  <path class="edge-line" d="M 730 80 Q 730 100 1280 120 L 1280 140"/>
  
  <!-- Level 1 nodes -->
  <!-- id node -->
  <rect class="node-rect" x="150" y="140" width="100" height="60" rx="5"/>
  <text class="node-text" x="200" y="170">id</text>
  
  <!-- name node -->
  <rect class="node-rect" x="330" y="140" width="100" height="60" rx="5"/>
  <text class="node-text" x="380" y="170">name</text>
  
  <!-- tags node -->
  <rect class="node-rect" x="650" y="140" width="100" height="60" rx="5"/>
  <text class="node-text" x="700" y="170">tags</text>
  
  <!-- inventory node -->
  <rect class="node-rect" x="950" y="140" width="100" height="60" rx="5"/>
  <text class="node-text" x="1000" y="170">inventory</text>
  
  <!-- distributors node -->
  <rect class="node-rect" x="1230" y="140" width="150" height="60" rx="5"/>
  <text class="node-text" x="1305" y="170">distributors</text>
  
  <!-- Connections from id -->
  <path class="edge-line" d="M 200 200 L 200 240"/>
  
  <!-- id value node -->
  <rect class="node-rect" x="70" y="240" width="260" height="60" rx="5"/>
  <text class="node-text" x="200" y="270" style="font-size: 14px;">00000000-...04001</text>
  
  <!-- Connections from name -->
  <path class="edge-line" d="M 380 200 L 380 240"/>
  
  <!-- name value node -->
  <rect class="node-rect" x="310" y="240" width="140" height="60" rx="5"/>
  <text class="node-text" x="380" y="270">Raiot Jacket</text>
  
  <!-- Connections from tags -->
  <path class="edge-line" d="M 680 200 Q 680 220 610 230 L 610 240"/>
  <path class="edge-line" d="M 720 200 Q 720 220 790 230 L 790 240"/>
  
  <!-- tags[0] node -->
  <rect class="node-rect" x="560" y="240" width="100" height="60" rx="5"/>
  <text class="node-text" x="610" y="270">0</text>
  
  <!-- tags[1] node -->
  <rect class="node-rect" x="740" y="240" width="100" height="60" rx="5"/>
  <text class="node-text" x="790" y="270">1</text>
  
  <!-- Connections from tags[0] -->
  <path class="edge-line" d="M 590 300 Q 590 320 540 330 L 540 340"/>
  <path class="edge-line" d="M 630 300 Q 630 320 680 330 L 680 340"/>
  
  <!-- tags[0]/category node -->
  <rect class="node-rect" x="480" y="340" width="120" height="60" rx="5"/>
  <text class="node-text" x="540" y="370">category</text>
  
  <!-- tags[0]/type node -->
  <rect class="node-rect" x="630" y="340" width="100" height="60" rx="5"/>
  <text class="node-text" x="680" y="370">type</text>
  
  <!-- Connections from tags[1] -->
  <path class="edge-line" d="M 770 300 Q 770 320 720 330 L 720 340"/>
  <path class="edge-line" d="M 810 300 Q 810 320 860 330 L 860 340"/>
  
  <!-- tags[1]/category node -->
  <rect class="node-rect" x="660" y="340" width="120" height="60" rx="5"/>
  <text class="node-text" x="720" y="370">category</text>
  
  <!-- tags[1]/type node -->
  <rect class="node-rect" x="810" y="340" width="100" height="60" rx="5"/>
  <text class="node-text" x="860" y="370">type</text>
  
  <!-- Connections from tags[0]/category -->
  <path class="edge-line" d="M 540 400 L 540 440"/>
  
  <!-- tags[0]/category value -->
  <rect class="node-rect" x="480" y="440" width="120" height="60" rx="5"/>
  <text class="node-text" x="540" y="470">clothing</text>
  
  <!-- Connections from tags[0]/type -->
  <path class="edge-line" d="M 680 400 L 680 440"/>
  
  <!-- tags[0]/type value -->
  <rect class="node-rect" x="630" y="440" width="100" height="60" rx="5"/>
  <text class="node-text" x="680" y="470">jacket</text>
  
  <!-- Connections from tags[1]/category -->
  <path class="edge-line" d="M 720 400 L 720 440"/>
  
  <!-- tags[1]/category value -->
  <rect class="node-rect" x="660" y="440" width="120" height="60" rx="5"/>
  <text class="node-text" x="720" y="470">outdoor</text>
  
  <!-- Connections from tags[1]/type -->
  <path class="edge-line" d="M 860 400 L 860 440"/>
  
  <!-- tags[1]/type value -->
  <rect class="node-rect" x="810" y="440" width="100" height="60" rx="5"/>
  <text class="node-text" x="860" y="470">winter</text>
  
  <!-- Connections from inventory -->
  <path class="edge-line" d="M 980 200 Q 980 220 930 230 L 930 240"/>
  <path class="edge-line" d="M 1020 200 Q 1020 220 1070 230 L 1070 240"/>
  
  <!-- inventory/warehouse node -->
  <rect class="node-rect" x="850" y="240" width="160" height="60" rx="5"/>
  <text class="node-text" x="930" y="270">warehouse</text>
  
  <!-- inventory/quantity node -->
  <rect class="node-rect" x="1020" y="240" width="100" height="60" rx="5"/>
  <text class="node-text" x="1070" y="270">quantity</text>
  
  <!-- Connections from inventory/warehouse -->
  <path class="edge-line" d="M 930 300 L 930 340"/>
  
  <!-- inventory/warehouse value -->
  <rect class="node-rect" x="870" y="340" width="120" height="60" rx="5"/>
  <text class="node-text" x="930" y="370">Seattle</text>
  
  <!-- Connections from inventory/quantity -->
  <path class="edge-line" d="M 1070 300 L 1070 340"/>
  
  <!-- inventory/quantity value -->
  <rect class="node-rect" x="1020" y="340" width="100" height="60" rx="5"/>
  <text class="node-text" x="1070" y="370">50</text>
  
  <!-- Connections from distributors -->
  <path class="edge-line" d="M 1285 200 Q 1285 220 1235 230 L 1235 240"/>
  <path class="edge-line" d="M 1325 200 Q 1325 220 1375 230 L 1375 240"/>
  
  <!-- distributors[0] node -->
  <rect class="node-rect" x="1185" y="240" width="100" height="60" rx="5"/>
  <text class="node-text" x="1235" y="270">0</text>
  
  <!-- distributors[1] node -->
  <rect class="node-rect" x="1325" y="240" width="100" height="60" rx="5"/>
  <text class="node-text" x="1375" y="270">1</text>
  
  <!-- Connections from distributors[0] -->
  <path class="edge-line" d="M 1235 300 L 1235 340"/>
  
  <!-- distributors[0]/name node -->
  <rect class="node-rect" x="1185" y="340" width="100" height="60" rx="5"/>
  <text class="node-text" x="1235" y="370">name</text>
  
  <!-- Connections from distributors[1] -->
  <path class="edge-line" d="M 1375 300 L 1375 340"/>
  
  <!-- distributors[1]/name node -->
  <rect class="node-rect" x="1325" y="340" width="100" height="60" rx="5"/>
  <text class="node-text" x="1375" y="370">name</text>
  
  <!-- Connections from distributors[0]/name -->
  <path class="edge-line" d="M 1235 400 L 1235 440"/>
  
  <!-- distributors[0]/name value -->
  <rect class="node-rect" x="1165" y="440" width="140" height="60" rx="5"/>
  <text class="node-text" x="1235" y="470">Contoso</text>
  
  <!-- Connections from distributors[1]/name -->
  <path class="edge-line" d="M 1375 400 L 1375 440"/>
  
  <!-- distributors[1]/name value -->
  <rect class="node-rect" x="1265" y="440" width="220" height="60" rx="5"/>
  <text class="node-text" x="1375" y="470">AdventureWorks</text>
</svg>
