<?xml version="1.0" encoding="utf-8"?>
<svg xmlns="http://www.w3.org/2000/svg" width="1400" height="600" viewBox="0 0 1400 600">
   <defs>
       <style>
          .background {
              fill: #FFFFFF;
              stroke: none;
          }

          .node-rect {
              fill: #243A5E;
              stroke: none;
          }

          .node-rect-highlight {
              fill: #D83B01;
              stroke: #D83B01;
              stroke-width: 4;
          }

          .node-text {
              fill: #fff;
              font-family: "Segoe UI", Arial, sans-serif;
              font-size: 18px;
              text-anchor: middle;
              dominant-baseline: middle;
          }

          .edge-line {
              stroke: #737373;
              stroke-width: 2;
              fill: none;
          }

          .edge-line-highlight {
              stroke: #D83B01;
              stroke-width: 3;
              fill: none;
          }
      </style>
   </defs>
   <rect width="1400" height="600" x="0" y="0" class="background" rx="0"/>
   <rect width="100" height="60" x="610.073" y="59.806" class="node-rect" rx="5"/>
   <path d="M 630.073 119.806 C 630.073 133.139 460.575 146.473 121.578 159.806 L 121.578 179.806" class="edge-line"/>
   <path d="M 645.073 119.806 C 645.073 133.139 516.447 146.473 259.195 159.806 L 259.195 179.806" class="edge-line"/>
   <path d="M 675.073 119.806 C 675.073 133.139 728.597 146.473 835.646 159.806 L 835.646 179.806" class="edge-line"/>
   <path d="M 690.073 119.806 C 690.073 133.139 843.077 146.473 1149.08 159.806 L 1149.08 179.806" class="edge-line"/>
   <rect width="100" height="60" x="72.356" y="180.195" class="node-rect" rx="5"/>
   <text x="122.356" y="210.195" class="node-text" style="white-space: pre; font-size: 18px;">id</text>
   <rect width="100" height="60" x="208.418" y="179.806" class="node-rect" rx="5"/>
   <text x="258.418" y="209.806" class="node-text" style="white-space: pre; font-size: 18px;">name</text>
   <rect width="100" height="60" x="433.153" y="180.195" class="node-rect" rx="5"/>
   <text x="483.153" y="210.195" class="node-text" style="white-space: pre; font-size: 18px;">tags</text>
   <rect width="100" height="60" x="782.535" y="180.195" class="node-rect" rx="5"/>
   <text x="832.535" y="210.195" class="node-text" style="white-space: pre; font-size: 18px;">inventory</text>
   <rect width="150" height="60" x="1072.64" y="180.195" class="node-rect" rx="5"/>
   <text x="1147.64" y="210.195" class="node-text" style="white-space: pre; font-size: 18px;">distributors</text>
   <path d="M 122.356 240.195 L 122.356 280.195" class="edge-line"/>
   <rect width="97.856" height="60" x="72.845" y="280.195" class="node-rect" rx="5"/>
   <text x="122.356" y="310.195" class="node-text" font-size="14" style="white-space: pre; font-size: 18px;">..04368</text>
   <path d="M 258.418 239.806 L 258.418 279.806" class="edge-line"/>
   <rect width="140" height="60" x="188.418" y="279.806" class="node-rect" rx="5"/>
   <text x="257.251" y="309.806" class="node-text" style="white-space: pre; font-size: 18px;">Cofaz Jacket</text>
   <path d="M 463.153 240.195 C 463.153 253.528 439.82 263.528 393.153 270.195 L 393.153 280.195" class="edge-line"/>
   <path d="M 503.153 240.195 C 503.153 253.528 526.486 263.528 573.153 270.195 L 573.153 280.195" class="edge-line"/>
   <rect width="100" height="60" x="343.153" y="280.195" class="node-rect" rx="5"/>
   <text x="393.153" y="310.195" class="node-text" style="white-space: pre; font-size: 18px;">0</text>
   <rect width="100" height="60" x="523.153" y="280.195" class="node-rect" rx="5"/>
   <text x="573.153" y="310.195" class="node-text" style="white-space: pre; font-size: 18px;">1</text>
   <path d="M 366.376 340.195 C 366.376 353.528 353.783 363.528 328.596 370.195 L 328.596 380.195 M 396.6 340.195 C 396.6 353.528 409.193 363.528 434.379 370.195 L 434.379 380.195" class="edge-line"/>
   <rect width="120" height="60" x="228.158" y="380.195" class="node-rect" rx="5"/>
   <text x="288.158" y="410.195" class="node-text" style="white-space: pre; font-size: 18px;">category</text>
   <rect width="100" height="60" x="359.494" y="379.417" class="node-rect" rx="5"/>
   <text x="409.494" y="409.417" class="node-text" style="white-space: pre; font-size: 18px;">type</text>
   <path d="M 553.153 340.195 C 553.153 353.528 536.486 363.528 503.153 370.195 L 503.153 380.195" class="edge-line"/>
   <path d="M 593.153 340.195 C 593.153 353.528 609.82 363.528 643.153 370.195 L 643.153 380.195" class="edge-line"/>
   <rect width="120" height="60" x="467.65" y="380.195" class="node-rect" rx="5"/>
   <text x="527.65" y="410.195" class="node-text" style="white-space: pre; font-size: 18px;">category</text>
   <rect width="100" height="60" x="593.153" y="380.195" class="node-rect" rx="5"/>
   <text x="643.153" y="410.195" class="node-text" style="white-space: pre; font-size: 18px;">type</text>
   <path d="M 288.158 440.195 L 288.158 480.195" class="edge-line"/>
   <rect width="120" height="60" x="228.158" y="480.195" class="node-rect" rx="5"/>
   <text x="288.158" y="510.195" class="node-text" style="white-space: pre; font-size: 18px;">clothing</text>
   <path d="M 409.494 439.417 L 409.494 479.417" class="edge-line"/>
   <rect width="100" height="60" x="359.494" y="479.417" class="node-rect" rx="5"/>
   <text x="409.494" y="509.417" class="node-text" style="white-space: pre; font-size: 18px;">jacket</text>
   <path d="M 527.65 440.195 L 527.65 480.195" class="edge-line"/>
   <rect width="120" height="60" x="467.65" y="480.195" class="node-rect" rx="5"/>
   <text x="527.65" y="510.195" class="node-text" style="white-space: pre; font-size: 18px;">outdoor</text>
   <path d="M 643.153 440.195 L 643.153 480.195" class="edge-line"/>
   <rect width="100" height="60" x="593.153" y="480.195" class="node-rect" rx="5"/>
   <text x="643.153" y="510.195" class="node-text" style="white-space: pre; font-size: 18px;">winter</text>
   <path d="M 812.535 240.195 C 812.535 253.528 795.868 263.528 762.535 270.195 L 762.535 280.195 M 852.535 240.195 C 852.535 253.528 869.202 263.528 902.535 270.195 L 902.535 280.195" class="edge-line"/>
   <rect width="160" height="60" x="682.535" y="280.195" class="node-rect" rx="5"/>
   <text x="762.535" y="310.195" class="node-text" style="white-space: pre; font-size: 18px;">warehouse</text>
   <rect width="100" height="60" x="852.535" y="280.195" class="node-rect" rx="5"/>
   <text x="902.535" y="310.195" class="node-text" style="white-space: pre; font-size: 18px;">quantity</text>
   <path d="M 762.535 340.195 L 762.535 380.195" class="edge-line"/>
   <rect width="120" height="60" x="702.535" y="380.195" class="node-rect" rx="5"/>
   <text x="762.535" y="410.195" class="node-text" style="white-space: pre; font-size: 18px;">Seattle</text>
   <path d="M 902.535 340.195 L 902.535 380.195" class="edge-line"/>
   <rect width="100" height="60" x="852.535" y="380.195" class="node-rect" rx="5"/>
   <text x="902.535" y="410.195" class="node-text" style="white-space: pre; font-size: 18px;">50</text>
   <path d="M 1095.39 240.195 C 1095.39 253.528 1072.75 263.528 1027.48 270.195 L 1027.48 280.195 M 1149.73 240.195 C 1149.73 253.528 1172.37 263.528 1217.64 270.195 L 1217.64 280.195" class="edge-line"/>
   <rect width="100" height="60" x="977.093" y="280.195" class="node-rect" rx="5"/>
   <text x="1027.09" y="310.195" class="node-text" style="white-space: pre; font-size: 18px;">0</text>
   <rect width="100" height="60" x="1167.64" y="280.195" class="node-rect" rx="5"/>
   <text x="1217.64" y="310.195" class="node-text" style="white-space: pre; font-size: 18px;">1</text>
   <path d="M 1027.09 340.195 L 1027.09 380.195" class="edge-line"/>
   <rect width="100" height="60" x="977.093" y="380.195" class="node-rect" rx="5"/>
   <text x="1027.09" y="410.195" class="node-text" style="white-space: pre; font-size: 18px;">name</text>
   <path d="M 1217.64 340.195 L 1217.64 380.195" class="edge-line"/>
   <rect width="100" height="60" x="1167.64" y="380.195" class="node-rect" rx="5"/>
   <text x="1217.64" y="410.195" class="node-text" style="white-space: pre; font-size: 18px;">name</text>
   <path d="M 1027.09 440.195 L 1027.09 480.195" class="edge-line"/>
   <rect width="140" height="60" x="957.094" y="480.195" class="node-rect" rx="5"/>
   <text x="1027.09" y="510.195" class="node-text" style="white-space: pre; font-size: 18px;">Contoso</text>
   <path d="M 1217.64 440.195 L 1217.64 480.195" class="edge-line"/>
   <rect width="220" height="60" x="1107.64" y="480.195" class="node-rect" rx="5"/>
   <text x="1217.64" y="510.195" class="node-text" style="white-space: pre; font-size: 18px;">AdventureWorks</text>
   <path d="M 661.219 118.971 C 661.219 132.304 600.898 145.638 480.257 158.971 L 480.257 178.971" class="edge-line"/>
</svg>